<?xml version="1.0" encoding="UTF-8" standalone="no"?>
<!-- Created with Inkscape (http://www.inkscape.org/) -->

<svg xmlns:dc="http://purl.org/dc/elements/1.1/" xmlns:cc="http://creativecommons.org/ns#"
  xmlns:rdf="http://www.w3.org/1999/02/22-rdf-syntax-ns#" xmlns:svg="http://www.w3.org/2000/svg"
  xmlns="http://www.w3.org/2000/svg" xmlns:sodipodi="http://sodipodi.sourceforge.net/DTD/sodipodi-0.dtd"
  xmlns:inkscape="http://www.inkscape.org/namespaces/inkscape" version="1.1" id="svg3713" xml:space="preserve"
  width="1892.4595" height="436.26559" viewBox="0 0 1892.4595 436.26559" sodipodi:docname="amsb.svg"
  inkscape:version="0.92.4 (5da689c313, 2019-01-14)">
  <metadata id="metadata3719">
    <rdf:RDF>
      <cc:Work rdf:about="">
        <dc:format>image/svg+xml</dc:format>
        <dc:type rdf:resource="http://purl.org/dc/dcmitype/StillImage" />
        <dc:title />
      </cc:Work>
    </rdf:RDF>
  </metadata>
  <defs id="defs3717">
    <clipPath clipPathUnits="userSpaceOnUse" id="clipPath3729">
      <path d="M 0,841.89 H 595.276 V 0 H 0 Z" id="path3727" inkscape:connector-curvature="0" />
    </clipPath>
    <linearGradient x1="0" y1="0" x2="1" y2="0" gradientUnits="userSpaceOnUse"
      gradientTransform="matrix(50.466595,22.813692,22.813692,-50.466595,206.99445,418.75555)" spreadMethod="pad"
      id="linearGradient3857">
      <stop style="stop-opacity:1;stop-color:#0fafa9" offset="0" id="stop3853" />
      <stop style="stop-opacity:1;stop-color:#154281" offset="1" id="stop3855" />
    </linearGradient>
    <linearGradient x1="0" y1="0" x2="1" y2="0" gradientUnits="userSpaceOnUse"
      gradientTransform="matrix(50.46637,22.813591,22.813591,-50.46637,198.61719,437.28842)" spreadMethod="pad"
      id="linearGradient3877">
      <stop style="stop-opacity:1;stop-color:#0fafa9" offset="0" id="stop3873" />
      <stop style="stop-opacity:1;stop-color:#154281" offset="1" id="stop3875" />
    </linearGradient>
    <linearGradient x1="0" y1="0" x2="1" y2="0" gradientUnits="userSpaceOnUse"
      gradientTransform="matrix(50.466728,22.813753,22.813753,-50.466728,200.94417,432.13992)" spreadMethod="pad"
      id="linearGradient3897">
      <stop style="stop-opacity:1;stop-color:#0fafa9" offset="0" id="stop3893" />
      <stop style="stop-opacity:1;stop-color:#154281" offset="1" id="stop3895" />
    </linearGradient>
    <linearGradient x1="0" y1="0" x2="1" y2="0" gradientUnits="userSpaceOnUse"
      gradientTransform="matrix(50.466171,22.813501,22.813501,-50.466171,206.162,420.59817)" spreadMethod="pad"
      id="linearGradient3917">
      <stop style="stop-opacity:1;stop-color:#0fafa9" offset="0" id="stop3913" />
      <stop style="stop-opacity:1;stop-color:#154281" offset="1" id="stop3915" />
    </linearGradient>
  </defs>
  <sodipodi:namedview pagecolor="#ffffff" bordercolor="#666666" borderopacity="1" objecttolerance="10"
    gridtolerance="10" guidetolerance="10" inkscape:pageopacity="0" inkscape:pageshadow="2" inkscape:window-width="1920"
    inkscape:window-height="1027" id="namedview3715" showgrid="false" inkscape:snap-grids="true"
    inkscape:snap-page="false" inkscape:zoom="0.70710678" inkscape:cx="961.022" inkscape:cy="245.01439"
    inkscape:window-x="-8" inkscape:window-y="-8" inkscape:window-maximized="1" inkscape:current-layer="layer4"
    fit-margin-top="0" fit-margin-left="0" fit-margin-right="0" fit-margin-bottom="0" />
  <g id="g3721" inkscape:groupmode="layer" inkscape:label="AM_StBrieuc"
    transform="matrix(1.3333333,0,0,-1.3333333,534.6999,808.67331)" style="display:inline;opacity:1">
    <g inkscape:groupmode="layer" id="layer1" inkscape:label="Logo" style="display:inline">
      <g style="display:inline;opacity:1" id="g3841" transform="matrix(6,0,0,6,-1543.2368,-2214.527)">
        <g id="g3843">
          <g id="g3849">
            <g id="g3851">
              <path
                d="m 217.27,415.713 c 1.423,0.074 2.886,0.201 4.395,0.389 v 0 c 12.261,1.538 24.58,6.614 34.027,13.34 v 0 c -7.35,12 -18.286,14.345 -20.827,14.735 v 0 c -6.054,-10.409 -12.557,-21.103 -17.595,-28.464"
                style="fill:url(#linearGradient3857);stroke:none" id="path3859" inkscape:connector-curvature="0" />
            </g>
          </g>
        </g>
      </g>
      <g style="display:inline;opacity:1" id="g3861" transform="matrix(6,0,0,6,-1543.2368,-2214.527)">
        <g id="g3863">
          <g id="g3869">
            <g id="g3871">
              <path
                d="m 234.928,444.289 c 14.896,5.657 28.35,14.484 34.147,18.547 v 0 c -3.868,4.276 -10.826,6.842 -19.873,6.978 v 0 c -3.3,-6.232 -8.585,-15.742 -14.274,-25.525"
                style="fill:url(#linearGradient3877);stroke:none" id="path3879" inkscape:connector-curvature="0" />
            </g>
          </g>
        </g>
      </g>
      <g style="display:inline;opacity:1" id="g3881" transform="matrix(6,0,0,6,-1543.2368,-2214.527)">
        <g id="g3883">
          <g id="g3889">
            <g id="g3891">
              <path
                d="m 191.558,437.725 c -4.768,-12.988 5.198,-22.052 22.765,-22.086 v 0 c 12.665,27.057 17.053,45.421 18.359,52.086 v 0 c -18.971,-4.815 -36.425,-17.198 -41.124,-30"
                style="fill:url(#linearGradient3897);stroke:none" id="path3899" inkscape:connector-curvature="0" />
            </g>
          </g>
        </g>
      </g>
      <g style="display:inline;opacity:1" id="g3901" transform="matrix(6,0,0,6,-1543.2368,-2214.527)">
        <g id="g3903">
          <g id="g3909">
            <g id="g3911">
              <path
                d="m 234.92,444.272 c -0.019,-0.026 -0.033,-0.052 -0.047,-0.08 v 0 c 3.222,-0.339 19.816,-2.355 28.258,-8.516 v 0 c 3.807,3.814 6.664,7.911 8.181,12.052 v 0 c 1.301,3.537 1.496,6.781 0.754,9.633 v 0 c -10.684,-4.712 -23.141,-9.085 -37.146,-13.089"
                style="fill:url(#linearGradient3917);stroke:none" id="path3919" inkscape:connector-curvature="0" />
            </g>
          </g>
        </g>
      </g>
    </g>
    <g inkscape:groupmode="layer" id="layer3" inkscape:label="AMSB" style="display:inline">
      <g style="display:inline;opacity:1" transform="matrix(6,0,0,6,-1542.8871,-2214.527)" id="g210">
        <g transform="translate(299.4043,442.3517)" id="g3731">
          <path inkscape:connector-curvature="0" id="path3733"
            style="fill:#154281;fill-opacity:1;fill-rule:nonzero;stroke:none"
            d="M 0,0 -9.165,23.921 -18.591,0 Z m 8.32,-14.756 c 0,-0.455 -0.325,-0.78 -1.17,-0.78 -0.974,0 -1.365,0.39 -1.69,1.235 l -4.55,11.96 h -20.411 l -4.68,-11.96 c -0.325,-0.845 -0.715,-1.235 -1.625,-1.235 -0.845,0 -1.17,0.325 -1.17,0.78 0,0.325 0.195,0.78 0.26,1.105 L -10.92,25.87 c 0.39,1.106 0.909,1.561 1.885,1.561 0.845,0 1.365,-0.455 1.755,-1.561 L 8.061,-13.651 c 0.064,-0.325 0.259,-0.78 0.259,-1.105" />
        </g>
        <g transform="translate(338.1445,435.6564)" id="g3735">
          <path inkscape:connector-curvature="0" id="path3737"
            style="fill:#154281;fill-opacity:1;fill-rule:nonzero;stroke:none"
            d="m 0,0 c -0.455,-1.04 -0.91,-1.495 -1.69,-1.495 -0.845,0 -1.3,0.455 -1.755,1.495 l -15.016,30.485 -2.86,-38.09 c -0.065,-0.845 -0.455,-1.236 -1.3,-1.236 -0.845,0 -1.3,0.391 -1.235,1.236 l 3.185,39.846 c 0.065,1.235 0.585,1.885 1.755,1.885 0.975,0 1.625,-0.52 2.08,-1.625 L -1.625,1.689 13.455,32.501 c 0.455,1.04 1.04,1.625 2.146,1.625 1.17,0 1.689,-0.65 1.754,-1.885 l 3.121,-39.846 c 0.064,-0.845 -0.326,-1.236 -1.17,-1.236 -0.846,0 -1.301,0.391 -1.366,1.236 l -2.99,38.09 z" />
        </g>
        <g transform="translate(367.0684,459.837)" id="g3739">
          <path inkscape:connector-curvature="0" id="path3741"
            style="fill:#154281;fill-opacity:1;fill-rule:nonzero;stroke:none"
            d="m 0,0 c 0,6.305 5.07,10.335 12.805,10.335 3.251,0 6.826,-0.779 9.685,-2.665 1.365,-0.91 1.95,-1.56 1.95,-2.145 0,-0.52 -0.519,-1.235 -1.169,-1.235 -0.456,0 -1.041,0.521 -2.081,1.17 -2.535,1.625 -5.134,2.535 -8.45,2.535 -6.176,0 -10.011,-3.184 -10.011,-7.8 0,-11.116 22.622,-8.126 22.622,-22.101 0,-7.345 -6.175,-11.571 -13.976,-11.571 -4.745,0 -7.865,1.431 -10.726,3.511 -1.17,0.845 -1.819,1.56 -1.819,2.145 0,0.585 0.52,1.235 1.17,1.235 0.649,0 0.91,-0.52 2.404,-1.56 2.601,-1.885 5.461,-2.991 9.036,-2.991 6.305,0 11.18,3.511 11.18,9.036 C 22.62,-10.141 0,-13.195 0,0" />
        </g>
        <g transform="translate(424.0088,438.3214)" id="g3743">
          <path inkscape:connector-curvature="0" id="path3745"
            style="fill:#154281;fill-opacity:1;fill-rule:nonzero;stroke:none"
            d="m 0,0 c 0,3.9 -2.016,7.28 -6.956,8.84 -2.08,0.65 -4.355,0.975 -6.89,0.975 h -6.5 v -18.72 c 1.95,-0.261 4.03,-0.391 5.98,-0.391 C -3.705,-9.296 0,-5.396 0,0 M -20.346,28.796 V 12.09 h 6.37 c 2.536,0 4.746,0.325 6.371,0.91 4.16,1.431 5.98,4.42 5.98,7.865 0,5.006 -3.771,8.321 -12.936,8.321 -1.82,0 -3.835,-0.13 -5.785,-0.39 M 2.859,0 c 0,-6.825 -5.2,-11.636 -17.225,-11.636 -2.535,0 -5.2,0.196 -6.696,0.521 -1.884,0.389 -1.884,1.04 -1.884,2.274 V 28.73 c 0,1.301 0,1.886 1.884,2.276 1.496,0.325 4.291,0.52 6.696,0.52 10.466,0 15.6,-4.03 15.6,-10.465 0,-4.941 -2.924,-8.646 -9.36,-10.011 C -1.105,9.88 2.859,5.915 2.859,0" />
        </g>
      </g>
    </g>
    <g inkscape:groupmode="layer" id="layer4" inkscape:label="Agence Maritime Saint-Brieuc" style="display:inline">
      <g style="display:inline;opacity:1" transform="matrix(6,0,0,6,-1543.9872,-2214.527)" id="g200">
        <g transform="translate(275.73945,420.3654)" id="g3747">
          <path inkscape:connector-curvature="0" id="path3749"
            style="fill:#0fafa9;fill-opacity:1;fill-rule:nonzero;stroke:none"
            d="M 0,0 -0.773,-2.232 H 0.774 Z M 1.549,-4.618 1.107,-3.367 H -1.106 L -1.548,-4.618 H -3.061 L -0.72,1.603 H 0.793 L 3.134,-4.618 Z" />
        </g>
        <g transform="translate(282.67005,415.6486)" id="g3751">
          <path inkscape:connector-curvature="0" id="path3753"
            style="fill:#0fafa9;fill-opacity:1;fill-rule:nonzero;stroke:none"
            d="m 0,0 c -1.72,0 -3.232,1.134 -3.232,3.204 0,2.071 1.512,3.196 3.25,3.196 1.647,0 2.358,-0.864 2.556,-1.08 L 1.611,4.483 C 1.35,4.771 0.864,5.194 0.018,5.194 c -0.999,0 -1.774,-0.729 -1.774,-1.99 0,-1.26 0.792,-1.989 1.801,-1.989 1.008,0 1.296,0.396 1.296,0.396 V 2.529 H 0.036 V 3.637 H 2.764 V 1.062 C 2.448,0.783 1.71,0 0,0" />
        </g>
        <g transform="translate(286.89955,415.7472)" id="g3755">
          <path inkscape:connector-curvature="0" id="path3757"
            style="fill:#0fafa9;fill-opacity:1;fill-rule:nonzero;stroke:none"
            d="M 0,0 V 6.212 H 4.024 V 5.051 H 1.449 V 3.781 H 3.88 V 2.62 H 1.449 V 1.18 H 4.105 V 0 Z" />
        </g>
        <g transform="translate(296.55775,415.7472)" id="g3759">
          <path inkscape:connector-curvature="0" id="path3761"
            style="fill:#0fafa9;fill-opacity:1;fill-rule:nonzero;stroke:none"
            d="m 0,0 -2.728,4.213 c 0,0 0.027,-0.747 0.027,-1.404 V 0 h -1.422 v 6.212 h 1.558 L 0.099,2.034 c 0,0 -0.027,0.702 -0.027,1.36 V 6.212 H 1.494 V 0 Z" />
        </g>
        <g transform="translate(302.66815,415.6388)" id="g3763">
          <path inkscape:connector-curvature="0" id="path3765"
            style="fill:#0fafa9;fill-opacity:1;fill-rule:nonzero;stroke:none"
            d="M 0,0 C -1.827,0 -3.259,1.207 -3.259,3.205 -3.259,5.213 -1.81,6.41 0,6.41 1.278,6.41 1.972,5.879 2.134,5.708 L 1.684,4.502 C 1.566,4.654 0.9,5.149 0.081,5.149 c -1.053,0 -1.863,-0.702 -1.863,-1.917 0,-1.215 0.846,-1.908 1.863,-1.908 0.774,0 1.333,0.306 1.675,0.657 L 2.242,0.847 C 1.927,0.522 1.27,0 0,0" />
        </g>
        <g transform="translate(306.11445,415.7472)" id="g3767">
          <path inkscape:connector-curvature="0" id="path3769"
            style="fill:#0fafa9;fill-opacity:1;fill-rule:nonzero;stroke:none"
            d="M 0,0 V 6.212 H 4.024 V 5.051 H 1.449 V 3.781 H 3.88 V 2.62 H 1.449 V 1.18 H 4.105 V 0 Z" />
        </g>
        <g transform="translate(319.50695,415.7472)" id="g3771">
          <path inkscape:connector-curvature="0" id="path3773"
            style="fill:#0fafa9;fill-opacity:1;fill-rule:nonzero;stroke:none"
            d="M 0,0 -0.243,4.231 H -0.261 L -1.593,0 H -2.745 L -4.087,4.231 H -4.114 L -4.339,0 h -1.432 l 0.468,6.212 h 1.837 l 1.297,-4.087 h 0.018 l 1.278,4.087 H 0.973 L 1.432,0 Z" />
        </g>
        <g transform="translate(324.82535,420.3654)" id="g3775">
          <path inkscape:connector-curvature="0" id="path3777"
            style="fill:#0fafa9;fill-opacity:1;fill-rule:nonzero;stroke:none"
            d="M 0,0 -0.773,-2.232 H 0.774 Z M 1.549,-4.618 1.107,-3.367 H -1.106 L -1.548,-4.618 H -3.061 L -0.72,1.603 H 0.793 L 3.134,-4.618 Z" />
        </g>
        <g transform="translate(331.05385,420.8341)" id="g3779">
          <path inkscape:connector-curvature="0" id="path3781"
            style="fill:#0fafa9;fill-opacity:1;fill-rule:nonzero;stroke:none"
            d="M 0,0 H -0.576 V -1.594 H 0 c 0.54,0 1.062,0.162 1.062,0.801 C 1.062,-0.145 0.54,0 0,0 m 1.197,-5.087 -1.305,2.377 h -0.459 v -2.377 h -1.458 v 6.212 h 2.232 c 1.189,0 2.322,-0.504 2.322,-1.863 0,-1.18 -0.756,-1.639 -1.215,-1.783 L 2.89,-5.087 Z" />
        </g>
        <path inkscape:connector-curvature="0" id="path3783"
          style="fill:#0fafa9;fill-opacity:1;fill-rule:nonzero;stroke:none"
          d="m 334.96795,421.959 h 1.458 v -6.212 h -1.458 z" />
        <g transform="translate(340.62905,420.8068)" id="g3785">
          <path inkscape:connector-curvature="0" id="path3787"
            style="fill:#0fafa9;fill-opacity:1;fill-rule:nonzero;stroke:none"
            d="M 0,0 V -5.06 H -1.458 V 0 H -3.061 V 1.152 H 1.603 V 0 Z" />
        </g>
        <path inkscape:connector-curvature="0" id="path3789"
          style="fill:#0fafa9;fill-opacity:1;fill-rule:nonzero;stroke:none"
          d="m 343.37295,421.959 h 1.458 v -6.212 h -1.458 z" />
        <g transform="translate(352.04115,415.7472)" id="g3791">
          <path inkscape:connector-curvature="0" id="path3793"
            style="fill:#0fafa9;fill-opacity:1;fill-rule:nonzero;stroke:none"
            d="M 0,0 -0.243,4.231 H -0.261 L -1.593,0 H -2.745 L -4.087,4.231 H -4.114 L -4.339,0 h -1.432 l 0.468,6.212 h 1.837 l 1.297,-4.087 h 0.018 l 1.278,4.087 H 0.973 L 1.432,0 Z" />
        </g>
        <g transform="translate(354.91125,415.7472)" id="g3795">
          <path inkscape:connector-curvature="0" id="path3797"
            style="fill:#0fafa9;fill-opacity:1;fill-rule:nonzero;stroke:none"
            d="M 0,0 V 6.212 H 4.024 V 5.051 H 1.449 V 3.781 H 3.88 V 2.62 H 1.449 V 1.18 H 4.105 V 0 Z" />
        </g>
        <g transform="translate(364.57825,415.6388)" id="g3799">
          <path inkscape:connector-curvature="0" id="path3801"
            style="fill:#154281;fill-opacity:1;fill-rule:nonzero;stroke:none"
            d="m 0,0 c -0.9,0 -1.701,0.469 -2.206,0.937 l 0.721,1.062 c 0.45,-0.468 1.143,-0.783 1.62,-0.783 0.469,0 0.829,0.224 0.829,0.638 0,0.424 -0.46,0.586 -0.73,0.685 -0.27,0.099 -0.738,0.261 -0.945,0.352 -0.153,0.071 -0.469,0.188 -0.738,0.45 -0.271,0.252 -0.487,0.611 -0.487,1.197 0,0.594 0.289,1.062 0.649,1.359 0.35,0.297 0.918,0.496 1.639,0.496 0.719,0 1.547,-0.343 1.971,-0.766 L 1.701,4.609 C 1.342,4.97 0.783,5.24 0.315,5.24 c -0.468,0 -0.81,-0.18 -0.81,-0.558 0,-0.378 0.351,-0.523 0.63,-0.63 C 0.405,3.943 0.864,3.781 1.062,3.7 1.854,3.412 2.413,2.899 2.413,1.999 2.413,0.657 1.206,0 0,0" />
        </g>
        <g transform="translate(370.76085,420.3654)" id="g3803">
          <path inkscape:connector-curvature="0" id="path3805"
            style="fill:#154281;fill-opacity:1;fill-rule:nonzero;stroke:none"
            d="M 0,0 -0.773,-2.232 H 0.774 Z M 1.549,-4.618 1.107,-3.367 H -1.106 L -1.548,-4.618 H -3.061 L -0.72,1.603 H 0.793 L 3.134,-4.618 Z" />
        </g>
        <path inkscape:connector-curvature="0" id="path3807"
          style="fill:#154281;fill-opacity:1;fill-rule:nonzero;stroke:none"
          d="m 374.96395,421.959 h 1.458 v -6.212 h -1.458 z" />
        <g transform="translate(382.21885,415.7472)" id="g3809">
          <path inkscape:connector-curvature="0" id="path3811"
            style="fill:#154281;fill-opacity:1;fill-rule:nonzero;stroke:none"
            d="m 0,0 -2.728,4.213 c 0,0 0.027,-0.747 0.027,-1.404 V 0 h -1.422 v 6.212 h 1.558 L 0.099,2.034 c 0,0 -0.027,0.702 -0.027,1.36 V 6.212 H 1.494 V 0 Z" />
        </g>
        <g transform="translate(387.91515,420.8068)" id="g3813">
          <path inkscape:connector-curvature="0" id="path3815"
            style="fill:#154281;fill-opacity:1;fill-rule:nonzero;stroke:none"
            d="M 0,0 V -5.06 H -1.458 V 0 H -3.061 V 1.152 H 1.603 V 0 Z" />
        </g>
        <path inkscape:connector-curvature="0" id="path3817"
          style="fill:#154281;fill-opacity:1;fill-rule:nonzero;stroke:none"
          d="m 390.36195,418.727 h 2.512 v -1.125 h -2.512 z" />
        <g transform="translate(396.50015,418.4386)" id="g3819">
          <path inkscape:connector-curvature="0" id="path3821"
            style="fill:#154281;fill-opacity:1;fill-rule:nonzero;stroke:none"
            d="M 0,0 H -0.801 V -1.584 H 0 c 0.541,0 1.09,0.144 1.09,0.792 C 1.09,-0.144 0.541,0 0,0 M -0.197,2.44 H -0.801 V 1.009 h 0.568 c 0.504,0 0.99,0.117 0.99,0.729 0,0.585 -0.469,0.702 -0.954,0.702 M 0.288,-2.691 H -2.25 v 6.212 h 2.115 C 0.433,3.521 0.981,3.476 1.396,3.26 1.81,3.043 2.188,2.639 2.188,1.954 2.188,1.27 1.747,0.748 1.279,0.586 V 0.567 c 0.774,-0.188 1.287,-0.711 1.287,-1.476 0,-1.332 -1.116,-1.782 -2.278,-1.782" />
        </g>
        <g transform="translate(402.42295,420.8341)" id="g3823">
          <path inkscape:connector-curvature="0" id="path3825"
            style="fill:#154281;fill-opacity:1;fill-rule:nonzero;stroke:none"
            d="M 0,0 H -0.576 V -1.594 H 0 c 0.54,0 1.062,0.162 1.062,0.801 C 1.062,-0.145 0.54,0 0,0 m 1.197,-5.087 -1.305,2.377 h -0.459 v -2.377 h -1.458 v 6.212 h 2.232 c 1.189,0 2.322,-0.504 2.322,-1.863 0,-1.18 -0.756,-1.639 -1.215,-1.783 L 2.89,-5.087 Z" />
        </g>
        <path inkscape:connector-curvature="0" id="path3827"
          style="fill:#154281;fill-opacity:1;fill-rule:nonzero;stroke:none"
          d="m 406.33695,421.959 h 1.458 v -6.212 h -1.458 z" />
        <g transform="translate(409.46885,415.7472)" id="g3829">
          <path inkscape:connector-curvature="0" id="path3831"
            style="fill:#154281;fill-opacity:1;fill-rule:nonzero;stroke:none"
            d="M 0,0 V 6.212 H 4.024 V 5.051 H 1.449 V 3.781 H 3.88 V 2.62 H 1.449 V 1.18 H 4.105 V 0 Z" />
        </g>
        <g transform="translate(419.57725,416.3868)" id="g3833">
          <path inkscape:connector-curvature="0" id="path3835"
            style="fill:#154281;fill-opacity:1;fill-rule:nonzero;stroke:none"
            d="m 0,0 c -0.433,-0.469 -1.107,-0.738 -2.008,-0.738 -0.909,0 -1.575,0.269 -2.016,0.738 -0.433,0.477 -0.585,1.08 -0.585,1.953 v 3.619 h 1.466 V 1.953 c 0,-0.441 0.037,-0.783 0.244,-1.035 0.198,-0.234 0.486,-0.388 0.891,-0.388 0.405,0 0.694,0.154 0.892,0.388 0.207,0.252 0.242,0.594 0.242,1.035 V 5.572 H 0.594 V 1.953 C 0.594,1.08 0.44,0.477 0,0" />
        </g>
        <g transform="translate(424.74235,415.6388)" id="g3837">
          <path inkscape:connector-curvature="0" id="path3839"
            style="fill:#154281;fill-opacity:1;fill-rule:nonzero;stroke:none"
            d="M 0,0 C -1.827,0 -3.259,1.207 -3.259,3.205 -3.259,5.213 -1.81,6.41 0,6.41 1.278,6.41 1.972,5.879 2.134,5.708 L 1.684,4.502 C 1.566,4.654 0.9,5.149 0.081,5.149 c -1.053,0 -1.863,-0.702 -1.863,-1.917 0,-1.215 0.846,-1.908 1.863,-1.908 0.774,0 1.333,0.306 1.675,0.657 L 2.242,0.847 C 1.927,0.522 1.27,0 0,0" />
        </g>
      </g>
    </g>
  </g>
</svg>