<svg width="512" height="512" xmlns="http://www.w3.org/2000/svg"><defs><linearGradient x1="0" y1="0" x2="1" y2="0" gradientUnits="userSpaceOnUse" gradientTransform="matrix(50.4666 22.8137 22.8137 -50.4666 206.994 418.756)" spreadMethod="pad" id="prefix__a"><stop offset="0" stop-color="#0fafa9"/><stop offset="1" stop-color="#154281"/></linearGradient><linearGradient x1="0" y1="0" x2="1" y2="0" gradientUnits="userSpaceOnUse" gradientTransform="scale(55.38334 -55.38334) rotate(-24.326 -16.524 -12.267)" spreadMethod="pad" id="prefix__b"><stop offset="0" stop-color="#0fafa9"/><stop offset="1" stop-color="#154281"/></linearGradient><linearGradient x1="0" y1="0" x2="1" y2="0" gradientUnits="userSpaceOnUse" gradientTransform="scale(55.38373 -55.38373) rotate(-24.326 -16.287 -12.318)" spreadMethod="pad" id="prefix__c"><stop offset="0" stop-color="#0fafa9"/><stop offset="1" stop-color="#154281"/></linearGradient><linearGradient x1="0" y1="0" x2="1" y2="0" gradientUnits="userSpaceOnUse" gradientTransform="scale(55.38312 -55.38312) rotate(-24.326 -15.757 -12.433)" spreadMethod="pad" id="prefix__d"><stop offset="0" stop-color="#0fafa9"/><stop offset="1" stop-color="#154281"/></linearGradient></defs><path d="M217.27 415.713c1.423.074 2.886.201 4.395.389 12.261 1.538 24.58 6.614 34.027 13.34-7.35 12-18.286 14.345-20.827 14.735-6.054-10.409-12.557-21.103-17.595-28.464" transform="matrix(6.23416 0 0 -6.23416 -1186.79 3016.03)" fill="url(#prefix__a)"/><path d="M234.928 444.289c14.896 5.657 28.35 14.484 34.147 18.547-3.868 4.276-10.826 6.842-19.873 6.978-3.3-6.232-8.585-15.742-14.274-25.525" transform="matrix(6.23416 0 0 -6.23416 -1186.79 3016.03)" fill="url(#prefix__b)"/><path d="M191.558 437.725c-4.768-12.988 5.198-22.052 22.765-22.086 12.665 27.057 17.053 45.421 18.359 52.086-18.971-4.815-36.425-17.198-41.124-30" transform="matrix(6.23416 0 0 -6.23416 -1186.79 3016.03)" fill="url(#prefix__c)"/><path d="M234.92 444.272a.54.54 0 01-.047-.08c3.222-.339 19.816-2.355 28.258-8.516 3.807 3.814 6.664 7.911 8.181 12.052 1.301 3.537 1.496 6.781.754 9.633-10.684-4.712-23.141-9.085-37.146-13.089" transform="matrix(6.23416 0 0 -6.23416 -1186.79 3016.03)" fill="url(#prefix__d)"/></svg>