<svg xmlns="http://www.w3.org/2000/svg" width="1892.459" height="436.266"><defs><linearGradient x1="0" y1="0" x2="1" y2="0" gradientUnits="userSpaceOnUse" gradientTransform="matrix(50.4666 22.8137 22.8137 -50.4666 206.994 418.756)" spreadMethod="pad" id="prefix__a"><stop offset="0" stop-color="#0fafa9"/><stop offset="1" stop-color="#154281"/></linearGradient><linearGradient x1="0" y1="0" x2="1" y2="0" gradientUnits="userSpaceOnUse" gradientTransform="scale(55.38334 -55.38334) rotate(-24.326 -16.524 -12.267)" spreadMethod="pad" id="prefix__b"><stop offset="0" stop-color="#0fafa9"/><stop offset="1" stop-color="#154281"/></linearGradient><linearGradient x1="0" y1="0" x2="1" y2="0" gradientUnits="userSpaceOnUse" gradientTransform="scale(55.38373 -55.38373) rotate(-24.326 -16.287 -12.318)" spreadMethod="pad" id="prefix__c"><stop offset="0" stop-color="#0fafa9"/><stop offset="1" stop-color="#154281"/></linearGradient><linearGradient x1="0" y1="0" x2="1" y2="0" gradientUnits="userSpaceOnUse" gradientTransform="scale(55.38312 -55.38312) rotate(-24.326 -15.757 -12.433)" spreadMethod="pad" id="prefix__d"><stop offset="0" stop-color="#0fafa9"/><stop offset="1" stop-color="#154281"/></linearGradient></defs><path d="M217.27 415.713c1.423.074 2.886.201 4.395.389 12.261 1.538 24.58 6.614 34.027 13.34-7.35 12-18.286 14.345-20.827 14.735-6.054-10.409-12.557-21.103-17.595-28.464" fill="url(#prefix__a)" transform="matrix(8 0 0 -8 -1522.95 3761.376)"/><path d="M234.928 444.289c14.896 5.657 28.35 14.484 34.147 18.547-3.868 4.276-10.826 6.842-19.873 6.978-3.3-6.232-8.585-15.742-14.274-25.525" fill="url(#prefix__b)" transform="matrix(8 0 0 -8 -1522.95 3761.376)"/><path d="M191.558 437.725c-4.768-12.988 5.198-22.052 22.765-22.086 12.665 27.057 17.053 45.421 18.359 52.086-18.971-4.815-36.425-17.198-41.124-30" fill="url(#prefix__c)" transform="matrix(8 0 0 -8 -1522.95 3761.376)"/><path d="M234.92 444.272a.54.54 0 01-.047-.08c3.222-.339 19.816-2.355 28.258-8.516 3.807 3.814 6.664 7.911 8.181 12.052 1.301 3.537 1.496 6.781.754 9.633-10.684-4.712-23.141-9.085-37.146-13.089" fill="url(#prefix__d)" transform="matrix(8 0 0 -8 -1522.95 3761.376)"/><g><path d="M872.751 222.562l-73.32-191.368-75.408 191.368zm66.56 118.048c0 3.64-2.6 6.24-9.36 6.24-7.792 0-10.92-3.12-13.52-9.88l-36.4-95.68H716.743l-37.44 95.68c-2.6 6.76-5.72 9.88-13 9.88-6.76 0-9.36-2.6-9.36-6.24 0-2.6 1.56-6.24 2.08-8.84L785.391 15.602c3.12-8.848 7.272-12.488 15.08-12.488 6.76 0 10.92 3.64 14.04 12.488L937.24 331.77c.512 2.6 2.072 6.24 2.072 8.84M1182.673 276.125c-3.64 8.32-7.28 11.96-13.52 11.96-6.76 0-10.4-3.64-14.04-11.96l-120.128-243.88-22.88 304.72c-.52 6.76-3.64 9.888-10.4 9.888s-10.4-3.128-9.88-9.888l25.48-318.768c.52-9.88 4.68-15.08 14.04-15.08 7.8 0 13 4.16 16.64 13l121.688 246.496 120.64-246.496c3.64-8.32 8.32-13 17.168-13 9.36 0 13.512 5.2 14.032 15.08l24.968 318.768c.512 6.76-2.608 9.888-9.36 9.888-6.768 0-10.408-3.128-10.928-9.888l-23.92-304.72zM1414.064 82.68c0-50.44 40.56-82.68 102.44-82.68 26.008 0 54.608 6.232 77.48 21.32 10.92 7.28 15.6 12.48 15.6 17.16 0 4.16-4.152 9.88-9.352 9.88-3.648 0-8.328-4.168-16.648-9.36-20.28-13-41.072-20.28-67.6-20.28-49.408 0-80.088 25.472-80.088 62.4 0 88.928 180.976 65.008 180.976 176.808 0 58.76-49.4 92.568-111.808 92.568-37.96 0-62.92-11.448-85.808-28.088-9.36-6.76-14.552-12.48-14.552-17.16s4.16-9.88 9.36-9.88c5.192 0 7.28 4.16 19.232 12.48 20.808 15.08 43.688 23.928 72.288 23.928 50.44 0 89.44-28.088 89.44-72.288 0-95.68-180.96-71.248-180.96-176.808M1869.587 254.805c0-31.2-16.128-58.24-55.648-70.72-16.64-5.2-34.84-7.8-55.12-7.8h-52v149.76c15.6 2.088 32.24 3.128 47.84 3.128 85.288 0 114.928-31.2 114.928-74.368M1706.82 24.437v133.648h50.96c20.288 0 37.968-2.6 50.968-7.28 33.28-11.448 47.84-35.36 47.84-62.92 0-40.048-30.168-66.568-103.488-66.568-14.56 0-30.68 1.04-46.28 3.12m185.64 230.368c0 54.6-41.6 93.088-137.8 93.088-20.28 0-41.6-1.568-53.568-4.168-15.072-3.112-15.072-8.32-15.072-18.192V24.965c0-10.408 0-15.088 15.072-18.208 11.968-2.6 34.328-4.16 53.568-4.16 83.728 0 124.8 32.24 124.8 83.72 0 39.528-23.392 69.168-74.88 80.088 56.168 9.36 87.88 41.08 87.88 88.4" fill="#154281"/></g><g><path d="M681.966 398.453l-6.184 17.856h12.376zm12.392 36.944l-3.536-10.008h-17.704l-3.536 10.008h-12.104l18.728-49.768h12.104l18.728 49.768zM737.41 436.187c-13.76 0-25.855-9.072-25.855-25.632 0-16.568 12.096-25.568 26-25.568 13.176 0 18.864 6.912 20.448 8.64l-7.704 6.696c-2.088-2.304-5.976-5.688-12.744-5.688-7.992 0-14.192 5.832-14.192 15.92 0 10.08 6.336 15.912 14.408 15.912 8.064 0 10.368-3.168 10.368-3.168v-7.344h-10.44v-8.864h21.824v20.6c-2.528 2.232-8.432 8.496-22.112 8.496M771.247 435.398v-49.696h32.192v9.288h-20.6v10.16h19.448v9.288h-19.448v11.52h21.248v9.44zM848.512 435.398l-21.824-33.704s.216 5.976.216 11.232v22.472h-11.376v-49.696h12.464l21.312 33.424s-.216-5.616-.216-10.88v-22.544h11.376v49.696zM897.395 436.266c-14.616 0-26.072-9.656-26.072-25.64 0-16.064 11.592-25.64 26.072-25.64 10.224 0 15.776 4.248 17.072 5.616l-3.6 9.648c-.944-1.216-6.272-5.176-12.824-5.176-8.424 0-14.904 5.616-14.904 15.336s6.768 15.264 14.904 15.264c6.192 0 10.664-2.448 13.4-5.256l3.888 9.072c-2.52 2.6-7.776 6.776-17.936 6.776M924.966 435.398v-49.696h32.192v9.288h-20.6v10.16h19.448v9.288h-19.448v11.52h21.248v9.44zM1032.106 435.398l-1.944-33.848h-.144l-10.656 33.848h-9.216L999.41 401.55h-.216l-1.8 33.848h-11.456l3.744-49.696h14.696l10.376 32.696h.144l10.224-32.696h14.768l3.672 49.696zM1074.653 398.453l-6.184 17.856h12.376zm12.392 36.944l-3.536-10.008h-17.704l-3.536 10.008h-12.104l18.728-49.768h12.104l18.728 49.768zM1124.481 394.703h-4.608v12.752h4.608c4.32 0 8.496-1.296 8.496-6.408 0-5.184-4.176-6.344-8.496-6.344m9.576 40.696l-10.44-19.016h-3.672V435.4h-11.664v-49.696h17.856c9.512 0 18.576 4.032 18.576 14.904 0 9.44-6.048 13.112-9.72 14.264l12.608 20.528zM1155.794 385.704h11.664V435.4h-11.664zM1201.083 394.922v40.48h-11.664v-40.48h-12.824v-9.216h37.312v9.216zM1223.034 385.704h11.664V435.4h-11.664zM1292.38 435.398l-1.945-33.848h-.144l-10.656 33.848h-9.216l-10.736-33.848h-.216l-1.8 33.848h-11.456l3.744-49.696h14.696l10.376 32.696h.144l10.224-32.696h14.768l3.672 49.696zM1315.34 435.398v-49.696h32.192v9.288h-20.6v10.16h19.448v9.288h-19.448v11.52h21.248v9.44z" fill="#0fafa9"/><path d="M1392.676 436.266c-7.2 0-13.608-3.752-17.648-7.496l5.768-8.496c3.6 3.744 9.144 6.264 12.96 6.264 3.752 0 6.632-1.792 6.632-5.104 0-3.392-3.68-4.688-5.84-5.48-2.16-.792-5.904-2.088-7.56-2.816-1.224-.568-3.752-1.504-5.904-3.6-2.168-2.016-3.896-4.888-3.896-9.576 0-4.752 2.312-8.496 5.192-10.872 2.8-2.376 7.344-3.968 13.112-3.968 5.752 0 12.376 2.744 15.768 6.128l-4.976 8.144c-2.872-2.888-7.344-5.048-11.088-5.048-3.744 0-6.48 1.44-6.48 4.464 0 3.024 2.808 4.184 5.04 5.04 2.16.872 5.832 2.168 7.416 2.816 6.336 2.304 10.808 6.408 10.808 13.608 0 10.736-9.656 15.992-19.304 15.992M1442.137 398.453l-6.184 17.856h12.376zm12.392 36.944l-3.536-10.008h-17.704l-3.536 10.008h-12.104l18.728-49.768h12.104l18.728 49.768zM1475.762 385.704h11.664V435.4h-11.664zM1533.801 435.398l-21.824-33.704s.216 5.976.216 11.232v22.472h-11.376v-49.696h12.464l21.312 33.424s-.216-5.616-.216-10.88v-22.544h11.376v49.696zM1579.371 394.922v40.48h-11.664v-40.48h-12.824v-9.216h37.312v9.216zM1598.946 411.56h20.096v9h-20.096zM1648.051 413.867h-6.408v12.672h6.408c4.328 0 8.72-1.152 8.72-6.336s-4.392-6.336-8.72-6.336m-1.576-19.52h-4.832v11.448h4.544c4.032 0 7.92-.936 7.92-5.832 0-4.68-3.752-5.616-7.632-5.616m3.88 41.048h-20.304V385.7h16.92c4.544 0 8.928.36 12.248 2.088 3.312 1.736 6.336 4.968 6.336 10.448 0 5.472-3.528 9.648-7.272 10.944v.152c6.192 1.504 10.296 5.688 10.296 11.808 0 10.656-8.928 14.256-18.224 14.256M1695.434 394.703h-4.608v12.752h4.608c4.32 0 8.496-1.296 8.496-6.408 0-5.184-4.176-6.344-8.496-6.344m9.576 40.696l-10.44-19.016h-3.672V435.4h-11.664v-49.696h17.856c9.512 0 18.576 4.032 18.576 14.904 0 9.44-6.048 13.112-9.72 14.264l12.608 20.528zM1726.746 385.704h11.664V435.4h-11.664zM1751.801 435.398v-49.696h32.192v9.288h-20.6v10.16h19.448v9.288h-19.448v11.52h21.248v9.44zM1832.668 430.282c-3.464 3.752-8.856 5.904-16.064 5.904-7.272 0-12.6-2.152-16.128-5.904-3.464-3.816-4.68-8.64-4.68-15.624v-28.952h11.728v28.952c0 3.528.296 6.264 1.952 8.28 1.584 1.872 3.888 3.104 7.128 3.104s5.552-1.232 7.136-3.104c1.656-2.016 1.936-4.752 1.936-8.28v-28.952h11.744v28.952c0 6.984-1.232 11.808-4.752 15.624M1873.99 436.266c-14.617 0-26.073-9.656-26.073-25.64 0-16.064 11.592-25.64 26.072-25.64 10.224 0 15.776 4.248 17.072 5.616l-3.6 9.648c-.944-1.216-6.272-5.176-12.824-5.176-8.424 0-14.904 5.616-14.904 15.336s6.768 15.264 14.904 15.264c6.192 0 10.664-2.448 13.4-5.256l3.888 9.072c-2.52 2.6-7.776 6.776-17.936 6.776" fill="#154281"/></g></svg>