<?xml version="1.0" encoding="UTF-8" standalone="no"?>
<!-- Created with Inkscape (http://www.inkscape.org/) -->

<svg version="1.1" id="svg3713" xml:space="preserve" width="512" height="512" sodipodi:docname="amsb_logo.svg"
  inkscape:version="1.2.2 (732a01da63, 2022-12-09)" viewBox="0 0 512 512"
  xmlns:inkscape="http://www.inkscape.org/namespaces/inkscape"
  xmlns:sodipodi="http://sodipodi.sourceforge.net/DTD/sodipodi-0.dtd" xmlns="http://www.w3.org/2000/svg"
  xmlns:svg="http://www.w3.org/2000/svg" xmlns:rdf="http://www.w3.org/1999/02/22-rdf-syntax-ns#"
  xmlns:cc="http://creativecommons.org/ns#" xmlns:dc="http://purl.org/dc/elements/1.1/">
  <metadata id="metadata3719">
    <rdf:RDF>
      <cc:Work rdf:about="">
        <dc:format>image/svg+xml</dc:format>
        <dc:type rdf:resource="http://purl.org/dc/dcmitype/StillImage" />

      </cc:Work>
    </rdf:RDF>
  </metadata>
  <defs id="defs3717">
    <linearGradient x1="0" y1="0" x2="1" y2="0" gradientUnits="userSpaceOnUse"
      gradientTransform="matrix(50.466595,22.813692,22.813692,-50.466595,206.99445,418.75555)" spreadMethod="pad"
      id="linearGradient3857">
      <stop style="stop-opacity:1;stop-color:#0fafa9" offset="0" id="stop3853" />
      <stop style="stop-opacity:1;stop-color:#154281" offset="1" id="stop3855" />
    </linearGradient>
    <linearGradient x1="0" y1="0" x2="1" y2="0" gradientUnits="userSpaceOnUse"
      gradientTransform="matrix(50.46637,22.813591,22.813591,-50.46637,198.61719,437.28842)" spreadMethod="pad"
      id="linearGradient3877">
      <stop style="stop-opacity:1;stop-color:#0fafa9" offset="0" id="stop3873" />
      <stop style="stop-opacity:1;stop-color:#154281" offset="1" id="stop3875" />
    </linearGradient>
    <linearGradient x1="0" y1="0" x2="1" y2="0" gradientUnits="userSpaceOnUse"
      gradientTransform="matrix(50.466728,22.813753,22.813753,-50.466728,200.94417,432.13992)" spreadMethod="pad"
      id="linearGradient3897">
      <stop style="stop-opacity:1;stop-color:#0fafa9" offset="0" id="stop3893" />
      <stop style="stop-opacity:1;stop-color:#154281" offset="1" id="stop3895" />
    </linearGradient>
    <linearGradient x1="0" y1="0" x2="1" y2="0" gradientUnits="userSpaceOnUse"
      gradientTransform="matrix(50.466171,22.813501,22.813501,-50.466171,206.162,420.59817)" spreadMethod="pad"
      id="linearGradient3917">
      <stop style="stop-opacity:1;stop-color:#0fafa9" offset="0" id="stop3913" />
      <stop style="stop-opacity:1;stop-color:#154281" offset="1" id="stop3915" />
    </linearGradient>
  </defs>
  <sodipodi:namedview pagecolor="#ffffff" bordercolor="#666666" borderopacity="1" objecttolerance="10"
    gridtolerance="10" guidetolerance="10" inkscape:pageopacity="0" inkscape:pageshadow="2" inkscape:window-width="1920"
    inkscape:window-height="1009" id="namedview3715" showgrid="true" inkscape:snap-grids="true"
    inkscape:snap-page="false" inkscape:zoom="0.70710678" inkscape:cx="593.26259" inkscape:cy="195.16147"
    inkscape:window-x="-8" inkscape:window-y="-8" inkscape:window-maximized="1" inkscape:current-layer="g3721"
    fit-margin-top="0" fit-margin-left="0" fit-margin-right="0" fit-margin-bottom="0" inkscape:showpageshadow="2"
    inkscape:pagecheckerboard="0" inkscape:deskcolor="#d1d1d1">
    <inkscape:grid type="xygrid" id="grid240" originx="-72.512337" originy="-50.696084" />
  </sodipodi:namedview>
  <clipPath clipPathUnits="userSpaceOnUse" id="clipPath3729">
    <path d="M 0,841.89 H 595.276 V 0 H 0 Z" id="path3727" inkscape:connector-curvature="0" />
  </clipPath>
  <g id="g3721" inkscape:groupmode="layer" inkscape:label="AM_StBrieuc"
    transform="matrix(1.0390275,0,0,-1.0390275,416.67592,715.0756)" style="display:inline;opacity:1">
    <g inkscape:groupmode="layer" id="layer1" inkscape:label="Logo" style="display:inline">
      <g style="display:inline;opacity:1" id="g3841" transform="matrix(6,0,0,6,-1543.2368,-2214.527)">
        <path
          d="m 217.27,415.713 c 1.423,0.074 2.886,0.201 4.395,0.389 v 0 c 12.261,1.538 24.58,6.614 34.027,13.34 v 0 c -7.35,12 -18.286,14.345 -20.827,14.735 v 0 c -6.054,-10.409 -12.557,-21.103 -17.595,-28.464"
          style="display:inline;opacity:1;fill:url(#linearGradient3857);stroke:none" id="path3859"
          inkscape:connector-curvature="0" transform="translate(1.90318e-6)" />
      </g>
      <g style="display:inline;opacity:1" id="g3861" transform="matrix(6,0,0,6,-1543.2368,-2214.527)">
        <path
          d="m 234.928,444.289 c 14.896,5.657 28.35,14.484 34.147,18.547 v 0 c -3.868,4.276 -10.826,6.842 -19.873,6.978 v 0 c -3.3,-6.232 -8.585,-15.742 -14.274,-25.525"
          style="display:inline;opacity:1;fill:url(#linearGradient3877);stroke:none" id="path3879"
          inkscape:connector-curvature="0" transform="translate(1.90318e-6)" />
      </g>
      <g style="display:inline;opacity:1" id="g3881" transform="matrix(6,0,0,6,-1543.2368,-2214.527)">
        <path
          d="m 191.558,437.725 c -4.768,-12.988 5.198,-22.052 22.765,-22.086 v 0 c 12.665,27.057 17.053,45.421 18.359,52.086 v 0 c -18.971,-4.815 -36.425,-17.198 -41.124,-30"
          style="display:inline;opacity:1;fill:url(#linearGradient3897);stroke:none" id="path3899"
          inkscape:connector-curvature="0" transform="translate(1.90318e-6)" />
      </g>
      <g style="display:inline;opacity:1" id="g3901" transform="matrix(6,0,0,6,-1543.2368,-2214.527)">
        <path
          d="m 234.92,444.272 c -0.019,-0.026 -0.033,-0.052 -0.047,-0.08 v 0 c 3.222,-0.339 19.816,-2.355 28.258,-8.516 v 0 c 3.807,3.814 6.664,7.911 8.181,12.052 v 0 c 1.301,3.537 1.496,6.781 0.754,9.633 v 0 c -10.684,-4.712 -23.141,-9.085 -37.146,-13.089"
          style="display:inline;opacity:1;fill:url(#linearGradient3917);stroke:none" id="path3919"
          inkscape:connector-curvature="0" transform="translate(1.90318e-6)" />
      </g>
    </g>
  </g>
</svg>